<?xml version="1.0" encoding="utf-8"?>
<!-- Generator: Adobe Illustrator 18.1.0, SVG Export Plug-In . SVG Version: 6.00 Build 0)  -->
<svg version="1.1"
	 id="svg2183" sodipodi:version="0.32" sodipodi:docname="retic.svg" inkscape:version="0.45.1" inkscape:output_extension="org.inkscape.output.svg.inkscape" sodipodi:docbase="C:\Documents and Settings\ja\Pulpit" xmlns:rdf="http://www.w3.org/1999/02/22-rdf-syntax-ns#" xmlns:cc="http://web.resource.org/cc/" xmlns:inkscape="http://www.inkscape.org/namespaces/inkscape" xmlns:sodipodi="http://sodipodi.sourceforge.net/DTD/sodipodi-0.dtd" xmlns:svg="http://www.w3.org/2000/svg" xmlns:dc="http://purl.org/dc/elements/1.1/"
	 xmlns="http://www.w3.org/2000/svg" xmlns:xlink="http://www.w3.org/1999/xlink" x="0px" y="0px"
	 viewBox="162.2 285.3 270.3 270.4" enable-background="new 162.2 285.3 270.3 270.4" xml:space="preserve">
<sodipodi:namedview  inkscape:window-y="58" inkscape:window-x="44" inkscape:pageopacity="0.0" inkscape:current-layer="layer1" inkscape:window-height="616" inkscape:window-width="868" inkscape:document-units="px" inkscape:pageshadow="2" inkscape:cx="320" borderopacity="1.0" bordercolor="#666666" id="base" inkscape:cy="226.19594" pagecolor="#ffffff" inkscape:zoom="0.77472527">
	</sodipodi:namedview>
<g id="layer1" inkscape:groupmode="layer" inkscape:label="Layer 1">
	
		<path id="path2343" sodipodi:cx="337.14285" sodipodi:cy="420.93362" sodipodi:rx="191.42857" sodipodi:ry="191.42857" sodipodi:type="arc" fill="none" stroke="#FFFFFF" stroke-width="4" stroke-linecap="round" stroke-linejoin="round" d="
		M430.5,420.5c0,73.5-59.5,133.1-133.1,133.2c-73.5,0.1-133.2-59.6-133.2-133.1v-0.1c0-73.5,59.5-133.1,133.1-133.2
		C370.9,287.3,430.5,346.8,430.5,420.5C430.5,420.5,430.5,420.5,430.5,420.5z"/>
	<path id="path3319" fill="none" stroke="#FFFFFF" stroke-width="4" d="M164.1,420.5h79.9"/>
	<path id="path7197" fill="none" stroke="#FFFFFF" stroke-width="4" d="M350.8,420.5h79.9"/>
	<path id="path8168" fill="none" stroke="#FFFFFF" stroke-width="4" d="M244.1,420.5h106.5"/>
	<path id="path9141" fill="none" stroke="#FFFFFF" stroke-width="4" d="M297.4,473.9v79.8"/>
	<path id="path10112" fill="none" stroke="#FFFFFF" stroke-width="4" d="M297.4,286.6v187.1"/>
	<path id="path11083" fill="none" stroke="#FFFFFF" stroke-width="4" d="M257.5,414.1v13"/>
	<path id="path12054" fill="none" stroke="#FFFFFF" stroke-width="4" d="M270.8,414.1v13"/>
	<path id="path13025" fill="none" stroke="#FFFFFF" stroke-width="4" d="M284.1,414.1v13"/>
	<path id="path13996" fill="none" stroke="#FFFFFF" stroke-width="4" d="M310.8,414.1v13"/>
	<path id="path14967" fill="none" stroke="#FFFFFF" stroke-width="4" d="M324.1,414.1v13"/>
	<path id="path15940" fill="none" stroke="#FFFFFF" stroke-width="4" d="M337.4,413.8v13"/>
	<path id="path16911" fill="none" stroke="#FFFFFF" stroke-width="4" d="M175.5,473.8h243.8"/>
	<path id="path17886" sodipodi:nodetypes="cc" fill="none" stroke="#FFFFFF" stroke-width="4" d="M230.9,474
		c35.3,8.8,53.7,34.5,53,78.9"/>
	<path id="path18865" sodipodi:nodetypes="cc" fill="none" stroke="#FFFFFF" stroke-width="4" d="M363.9,474
		c-35.3,8.8-53.7,34.5-53,78.9"/>
	<path id="path18885" fill="none" stroke="#FFFFFF" stroke-width="4" d="M290.9,407H304"/>
	<path id="path19856" fill="none" stroke="#FFFFFF" stroke-width="4" d="M290.8,393.8H304"/>
	<path id="path22765" fill="none" stroke="#FFFFFF" stroke-width="4" d="M290.9,380.5h13"/>
	<path id="path23736" fill="none" stroke="#FFFFFF" stroke-width="4" d="M290.9,460.1h12.9"/>
	<path id="path24707" fill="none" stroke="#FFFFFF" stroke-width="4" d="M290.8,447.1H304"/>
	<path id="path25680" fill="none" stroke="#FFFFFF" stroke-width="4" d="M291,433.8h12.7"/>
	<path id="path26651" fill="none" stroke="#FFFFFF" stroke-width="4" d="M283.5,540.3H311"/>
	<path id="path27622" fill="none" stroke="#FFFFFF" stroke-width="4" d="M281.9,527h31"/>
	<path id="path28593" fill="none" stroke="#FFFFFF" stroke-width="4" d="M277.9,513.7h39"/>
	<path id="path29564" fill="none" stroke="#FFFFFF" stroke-width="4" d="M271,500.3h52.8"/>
	<path id="path30535" fill="none" stroke="#FFFFFF" stroke-width="4" d="M258.9,487h77.3"/>
</g>
</svg>
